<?xml version="1.0" standalone="no"?>
<!DOCTYPE svg PUBLIC "-//W3C//DTD SVG 20010904//EN"
 "http://www.w3.org/TR/2001/REC-SVG-20010904/DTD/svg10.dtd">
<svg version="1.0" xmlns="http://www.w3.org/2000/svg"
 width="496.000000pt" height="496.000000pt" viewBox="0 0 496.000000 496.000000"
 preserveAspectRatio="xMidYMid meet">

<g transform="translate(0.000000,496.000000) scale(0.100000,-0.100000)"
fill="#000000" stroke="none">
<path d="M1773 3791 c-18 -11 -39 -30 -47 -43 -22 -34 -30 -92 -16 -118 14
-26 83 -59 123 -60 31 0 81 44 92 81 18 56 -34 145 -90 154 -20 4 -41 -1 -62
-14z m105 -84 c4 -21 -27 -35 -38 -17 -12 19 0 42 19 38 9 -2 17 -11 19 -21z"/>
<path d="M2533 3782 c-64 -52 -84 -154 -37 -191 32 -25 63 -26 131 -6 53 16
103 61 103 94 0 21 -63 83 -107 105 -41 20 -63 20 -90 -2z m102 -87 c0 -28
-29 -25 -33 3 -3 19 0 23 15 20 10 -2 18 -12 18 -23z"/>
<path d="M2984 3615 c0 -60 1 -84 3 -52 2 32 2 81 0 110 -2 29 -3 3 -3 -58z"/>
<path d="M3022 3690 c0 -14 2 -19 5 -12 2 6 2 18 0 25 -3 6 -5 1 -5 -13z"/>
<path d="M1562 3600 c0 -19 2 -27 5 -17 2 9 2 25 0 35 -3 9 -5 1 -5 -18z"/>
<path d="M1547 3485 c-6 -15 10 -32 20 -21 4 3 1 6 -5 6 -6 0 -9 7 -6 15 4 8
4 15 1 15 -3 0 -7 -7 -10 -15z"/>
<path d="M1560 3439 c0 -5 -6 -7 -12 -3 -10 6 -10 5 0 -8 10 -12 9 -18 -3 -28
-17 -14 -21 -55 -5 -45 6 4 8 11 5 16 -4 5 -2 9 4 9 5 0 12 -8 14 -17 3 -10 5
6 6 35 0 28 -1 52 -4 52 -3 0 -5 -5 -5 -11z"/>
<path d="M2982 3340 c0 -14 2 -19 5 -12 2 6 2 18 0 25 -3 6 -5 1 -5 -13z"/>
<path d="M1917 3331 c-67 -10 -108 -41 -138 -106 -50 -107 1 -222 131 -295
l62 -35 -6 -54 c-2 -30 -12 -61 -22 -72 -21 -23 -164 -109 -181 -109 -7 0 -13
-11 -13 -25 0 -14 6 -25 14 -25 7 0 53 21 102 46 106 54 135 54 253 -2 119
-57 177 -74 252 -74 117 0 213 62 271 174 15 29 17 41 8 50 -8 8 -21 1 -48
-29 -20 -22 -45 -51 -55 -65 -10 -14 -15 -18 -12 -10 4 8 -3 4 -14 -10 -11
-14 -21 -20 -21 -15 0 6 -4 4 -9 -4 -13 -20 -43 -25 -131 -26 -72 0 -80 2
-200 63 -70 34 -134 62 -144 62 -14 0 -17 5 -12 23 3 12 6 31 6 43 0 14 16 31
48 52 112 73 202 192 202 269 0 133 -136 202 -343 174z"/>
<path d="M3065 3145 c4 -11 8 -29 9 -40 1 -23 22 -48 35 -43 5 2 -5 26 -21 53
-17 28 -27 41 -23 30z"/>
<path d="M3052 3090 c0 -14 2 -19 5 -12 2 6 2 18 0 25 -3 6 -5 1 -5 -13z"/>
<path d="M3429 888 c-3 -21 -2 -38 2 -38 13 0 16 14 9 45 l-6 30 -5 -37z"/>
</g>
</svg>
